<svg width="8" height="10" viewBox="0 0 8 10" fill="none" xmlns="http://www.w3.org/2000/svg">
<path d="M7.33333 7.52083C7.33333 7.52083 7.33333 4.33333 7.33333 3.33333C7.33333 2.33333 6.33333 1.33333 5.33333 1.33333C4.66667 1.33333 4.66667 1.33333 4.66667 1.33333V0L2.66667 2L4.66667 4V2.66667C4.66667 2.66667 5 2.66667 5.33333 2.66667C5.66667 2.66667 6 3 6 3.33333C6 3.66667 6 7.52083 6 7.52083C5.60417 7.75 5.33333 8.17708 5.33333 8.66667C5.33333 9.40625 5.92708 10 6.66667 10C7.40625 10 8 9.40625 8 8.66667C8 8.17708 7.72917 7.75 7.33333 7.52083ZM6.66667 9.33333C6.30208 9.33333 6 9.03125 6 8.66667C6 8.30208 6.30208 8 6.66667 8C7.03125 8 7.33333 8.30208 7.33333 8.66667C7.33333 9.03125 7.03125 9.33333 6.66667 9.33333ZM1.33333 0.666667C0.59375 0.666667 0 1.26042 0 2C0 2.48958 0.270833 2.91667 0.666667 3.14583V7.51042C0.270833 7.73958 0 8.16667 0 8.65625C0 9.39583 0.59375 9.98958 1.33333 9.98958C2.07292 9.98958 2.66667 9.39583 2.66667 8.65625C2.66667 8.16667 2.39583 7.73958 2 7.51042V3.14583C2.39583 2.91667 2.66667 2.48958 2.66667 2C2.66667 1.26042 2.07292 0.666667 1.33333 0.666667ZM1.33333 9.33333C0.96875 9.33333 0.666667 9.03125 0.666667 8.66667C0.666667 8.30208 0.96875 8 1.33333 8C1.69792 8 2 8.30208 2 8.66667C2 9.03125 1.69792 9.33333 1.33333 9.33333ZM1.33333 2.66667C0.96875 2.66667 0.666667 2.36458 0.666667 2C0.666667 1.63542 0.96875 1.33333 1.33333 1.33333C1.69792 1.33333 2 1.63542 2 2C2 2.36458 1.69792 2.66667 1.33333 2.66667Z" fill="#828282"/>
</svg>
