<svg width="32" height="32" viewBox="0 0 32 32" fill="none" xmlns="http://www.w3.org/2000/svg">
<path fill-rule="evenodd" clip-rule="evenodd" d="M16 32C24.8366 32 32 24.8366 32 16C32 7.16344 24.8366 0 16 0C11.3881 0 7.23193 1.95127 4.31204 5.07327C9.61836 9.01899 20.4355 9.21381 20.6047 8.97621C22.1202 6.8487 24.7845 8.43196 24.3934 9.99624C23.8397 12.2112 21.5665 11.7935 20.6047 10.4334C17.2435 10.0934 10.2645 9.91464 9.23862 11.9197C8.21275 13.9248 19.5361 18.5257 25.326 20.5755C26.4335 18.9434 30.3971 20.3423 28.7359 23.315C27.6749 25.2136 24.7723 23.927 24.7723 22.2075C22.4592 21.1633 20.4156 20.2165 18.6167 19.3831C11.7804 16.2158 8.48091 14.6872 7.37341 15.6793C6.25428 16.6819 9.68549 22.023 11.541 24.5682C12.9107 24.2768 13.6976 25.5591 13.6976 26.3168C13.6976 27.5409 12.765 28.4152 11.541 28.2112C10.8829 28.1015 9.79235 27.4534 9.96722 25.5591C9.98459 25.3709 5.44153 15.6994 0.0914821 14.279C0.0310154 14.8443 0 15.4186 0 16C0 24.8366 7.16344 32 16 32Z" fill="#5AD8C7"/>
</svg>
